<?xml version="1.0" encoding="UTF-8"?><svg id="Layer_3" xmlns="http://www.w3.org/2000/svg" viewBox="0 0 4096 1208"><path d="M19,880c-5.34,0-7.67-2.66-7-8l5-48c.66-5.33,3.66-8,9-8H362l-112-232-128,192c-2.67,2.67-5.34,4-8,4l-34-26c-2.67-1.33-4.5-3.33-5.5-6-1-2.66,.16-5.33,3.5-8l142-212L78,240l1-4,5-52c.66-5.33,3.66-8,9-8H493c5.33,0,7.66,2.67,7,8l-5,52-1,4-202,288,142,288-1,4-5,52c-.67,5.34-3.67,8-9,8H19Zm242-404l161-236H150l111,236Z"/><path d="M547,880c-5.34,0-7.67-2.66-7-8l5-48c.66-5.33,3.66-8,9-8h168l60-576h-136c-5.34,0-7.67-2.66-7-8l5-48c.66-5.33,3.66-8,9-8h336c5.33,0,7.66,2.67,7,8l-5,48c-.67,5.34-3.67,8-9,8h-136l-60,576h168c5.33,0,7.66,2.67,7,8l-5,48c-.67,5.34-3.67,8-9,8h-400Z"/><path d="M1059,880c-5.34,0-7.67-2.66-7-8l5-48c.66-5.33,3.66-8,9-8h304l-252-576,1-4,5-52c.66-5.33,3.66-8,9-8h368c5.33,0,7.66,2.67,7,8l-5,48c-.67,5.34-3.67,8-9,8h-300l248,576-1,4-5,52c-.67,5.34-3.67,8-9,8h-368Z"/><path d="M1905,828c-41.34,37.34-91.34,56-150,56s-104.67-18.66-138-56c-38.67-42.66-55.34-86.66-50-132l53-512c.66-5.33,3.66-8,9-8h48c5.33,0,7.66,2.67,7,8l-53,504c-3.34,34.67,9.33,66.67,38,96,22,24,53,36,93,36s73-12,99-36c35.33-32,54.66-64,58-96l53-504c.66-5.33,3.66-8,9-8h48c5.33,0,7.66,2.67,7,8l-53,512c-5.34,45.34-31.34,89.34-78,132Z"/><path d="M2237,880v-154h134v154h-134Z"/><path d="M2849,176c46,2,73.33,8.67,82,20l10-21c1.33-4,5-5.33,11-4l43,22c4,2.67,5.33,6.34,4,11l-20,32c10,9.34,22,32,36,68,23.33,58.67,30.33,133.34,21,224-9.34,88-35,165.34-77,232-48,80-109.34,120-184,120-55.34-2.66-92.34-18.66-111-48l-23,41c-2,4-5,5.34-9,4l-45-23c-4.67-1.33-5.34-4.66-2-10l40-69c-10.67-14-22.34-50.33-35-109-.67-5.33,2-8.66,8-10l46-16h4l3,4c5.33,32.67,8.33,53.34,9,62l231-442c-6-16-22.34-24-49-24-32,0-63,15.34-93,46-30,30.67-54.34,71.34-73,122,0,2.67-1.34,4-4,4h-8l-39-12c-4.67-2.66-7-6.66-7-12,58-141.33,135-212,231-212Zm-155,596c8.66,29.34,37.66,44,87,44,53.33,0,96.83-32,130.5-96,33.66-64,53.83-128,60.5-192,8.66-82.66,.33-151.33-25-206l-8-11-245,461Z"/><path d="M3291,884c-61.34,0-110.5-33.33-147.5-100-37-66.66-49.17-161.33-36.5-284,8-74.66,37-146.66,87-216,50-69.33,107-104,171-104,69.33,0,121.33,38.67,156,116,28,64,39.66,129.34,35,196,0,2.67-.84,4.67-2.5,6-1.67,1.34-3.84,2-6.5,2h-376c-10,96-3.34,173.34,20,232,23.33,58.67,59,88,107,88,45.33,0,85.5-26.66,120.5-80,35-53.33,56.83-109.33,65.5-168,.66-5.33,3.66-8,9-8l47,4c2.66,0,4.66,.67,6,2,1.33,1.34,1.66,3.34,1,6-8,56-30,113.34-66,172-52,90.67-115.34,136-190,136Zm152-588c-22-34.66-50.34-52-85-52s-66.5,17.34-95.5,52c-29,34.67-47.84,62.67-56.5,84-8.67,21.34-15.34,40-20,56h304c-.67-16-3.34-34.66-8-56-4.67-21.33-17.67-49.33-39-84Z"/><path d="M3699,880c-5.34,0-8-2.66-8-8l6-56,81-160-136-460c.66-2.66,1.83-5.33,3.5-8,1.66-2.66,3.83-4,6.5-4l45-16c2.66,0,5.33,1.34,8,4l114,404,198-404c2.66-2.66,5.33-4,8-4l43,12c2.66,0,4.5,1.34,5.5,4,1,2.67,1.5,5.34,1.5,8l-232,460,47,156-7,64c0,5.34-2.67,8-8,8h-176Zm62-64h64l-24-76-40,76Z"/></svg>